HIERARCHY
ROOT SpineBase
{
  OFFSET 0.000000 0.000000 0.000000
  CHANNELS 6 Xposition Yposition Zposition Zrotation Xrotation Yrotation
  JOINT SpineMid
  {
    OFFSET 0.000000 29.799921 0.000000
    CHANNELS 3 Zrotation Xrotation Yrotation
    JOINT SpineShoulder
    {
      OFFSET 0.937078 22.187592 -1.092247
      CHANNELS 3 Zrotation Xrotation Yrotation
      JOINT Neck
      {
        OFFSET 0.330950 7.518112 -0.646320
        CHANNELS 3 Zrotation Xrotation Yrotation
        JOINT Head
        {
          OFFSET 4.606918 12.992490 2.809492
          CHANNELS 3 Zrotation Xrotation Yrotation
          End Site
          {
            OFFSET 0 0 0
          }
        }
      }
      JOINT ShoulderLeft
      {
        OFFSET -9.069865 -2.265442 -12.394355
        CHANNELS 3 Zrotation Xrotation Yrotation
        JOINT ElbowLeft
        {
          OFFSET -7.036845 -24.435987 -5.489024
          CHANNELS 3 Zrotation Xrotation Yrotation
          JOINT WristLeft
          {
            OFFSET 2.433774 -24.832817 -4.512061
            CHANNELS 3 Zrotation Xrotation Yrotation
            JOINT HandLeft
            {
              OFFSET 1.316357 -3.813214 -0.422984
              CHANNELS 3 Zrotation Xrotation Yrotation
              JOINT HandTipLeft
              {
                OFFSET 1.761304 -8.104145 -1.102880
                CHANNELS 3 Zrotation Xrotation Yrotation
                End Site
                {
                  OFFSET 0 0 0
                }
              }
              JOINT ThumbLeft
              {
                OFFSET -2.935670 -0.319786 -0.218527
                CHANNELS 3 Zrotation Xrotation Yrotation
                End Site
                {
                  OFFSET 0 0 0
                }
              }
            }
          }
        }
      }
      JOINT ShoulderRight
      {
        OFFSET 9.850740 -6.512838 12.020487
        CHANNELS 3 Zrotation Xrotation Yrotation
        JOINT ElbowRight
        {
          OFFSET 1.847907 -23.069362 10.763924
          CHANNELS 3 Zrotation Xrotation Yrotation
          JOINT WristRight
          {
            OFFSET 5.400374 -25.345975 1.708939
            CHANNELS 3 Zrotation Xrotation Yrotation
            JOINT HandRight
            {
              OFFSET 2.923322 -5.623999 0.324076
              CHANNELS 3 Zrotation Xrotation Yrotation
              JOINT HandTipRight
              {
                OFFSET 6.075475 -3.592305 -2.519348
                CHANNELS 3 Zrotation Xrotation Yrotation
                End Site
                {
                  OFFSET 0 0 0
                }
              }
              JOINT ThumbRight
              {
                OFFSET -2.996139 -0.454684 -2.354742
                CHANNELS 3 Zrotation Xrotation Yrotation
                End Site
                {
                  OFFSET 0 0 0
                }
              }
            }
          }
        }
      }
    }
  }
  JOINT HipLeft
  {
    OFFSET -3.457087 2.011086 -7.928763
    CHANNELS 3 Zrotation Xrotation Yrotation
    JOINT KneeLeft
    {
      OFFSET 3.148101 -30.244673 -21.099464
      CHANNELS 3 Zrotation Xrotation Yrotation
      JOINT AnkleLeft
      {
        OFFSET -24.620842 -12.734170 10.362374
        CHANNELS 3 Zrotation Xrotation Yrotation
        JOINT FootLeft
        {
          OFFSET 4.124243 -6.226585 -12.179728
          CHANNELS 3 Zrotation Xrotation Yrotation
          End Site
          {
            OFFSET 0 0 0
          }
        }
      }
    }
  }
  JOINT HipRight
  {
    OFFSET 4.395631 -0.225207 1.618897
    CHANNELS 3 Zrotation Xrotation Yrotation
    JOINT KneeRight
    {
      OFFSET 5.017973 -33.001732 7.357706
      CHANNELS 3 Zrotation Xrotation Yrotation
      JOINT AnkleRight
      {
        OFFSET -1.927130 -32.229059 1.699897
        CHANNELS 3 Zrotation Xrotation Yrotation
        JOINT FootRight
        {
          OFFSET 7.118266 -4.077017 -1.398484
          CHANNELS 3 Zrotation Xrotation Yrotation
          End Site
          {
            OFFSET 0 0 0
          }
        }
      }
    }
  }
}
MOTION
Frames: 14
Frame Time: 0.033333
-46.369363 72.888999 345.271733 -0.000000 0.000000 -50.563534 -0.000000 0.000000 50.563534 -0.000000 0.000000 0.000000 -0.000000 0.000000 0.000000 0.000000 0.000000 0.000000 -0.000000 0.000000 0.000000 -0.000000 0.000000 0.000000 -0.000000 0.000000 0.000000 -0.000000 0.000000 0.000000 0.000000 0.000000 0.000000 0.000000 0.000000 0.000000 -0.000000 0.000000 0.000000 -0.000000 0.000000 0.000000 -0.000000 0.000000 0.000000 -0.000000 0.000000 0.000000 0.000000 0.000000 0.000000 0.000000 0.000000 0.000000 -0.000000 0.000000 50.563534 -0.000000 0.000000 0.000000 -0.000000 0.000000 0.000000 0.000000 0.000000 0.000000 -0.000000 0.000000 50.563534 -0.000000 0.000000 0.000000 -0.000000 0.000000 0.000000 0.000000 0.000000 0.000000
-46.270518 72.948197 345.192991 0.833045 -0.972767 -51.062978 0.387782 0.522484 51.175560 0.132876 -0.075137 0.070835 0.002603 -0.146879 -0.117391 0.000000 0.000000 0.000000 -0.738185 0.362544 -0.186725 1.516233 -0.171377 -0.514539 -8.675084 -3.046166 -0.217242 8.581077 4.833689 0.135949 0.000000 0.000000 0.000000 0.000000 0.000000 0.000000 -1.795474 5.199500 0.088497 -1.056513 -3.133903 -0.182795 -4.930814 -0.575684 -0.342126 -4.251631 -2.753632 3.940076 0.000000 0.000000 0.000000 0.000000 0.000000 0.000000 -0.824438 -3.269776 52.411785 7.389189 5.254418 -3.762066 -1.409494 3.385608 -0.719631 0.000000 0.000000 0.000000 -0.013184 0.743215 51.298602 0.155410 -7.444199 0.421266 0.753624 3.743470 -8.596073 0.000000 0.000000 0.000000
-46.241876 73.009945 345.118429 1.594427 -1.803893 -51.339724 0.688344 0.996571 51.549309 0.235071 -0.138060 0.132336 0.114446 -0.513158 -0.170659 0.000000 0.000000 0.000000 -1.157276 0.660788 -0.410624 2.513507 -0.448067 -0.892351 -15.029664 -5.090919 -0.405947 14.531888 8.296371 -0.201117 0.000000 0.000000 0.000000 0.000000 0.000000 0.000000 -3.342032 9.610230 0.209926 -1.926024 -6.315742 -0.573545 -8.933419 -1.075252 -0.888701 -12.195466 -6.787258 7.714193 0.000000 0.000000 0.000000 0.000000 0.000000 0.000000 -1.464083 -6.321462 53.992649 14.986036 9.725713 -8.147630 -2.982455 6.207698 -1.648856 0.000000 0.000000 0.000000 -0.026664 1.280108 51.761103 -0.068511 -11.643326 0.723002 0.695075 5.147299 -14.832168 0.000000 0.000000 0.000000
-46.283437 73.074243 345.048047 2.286173 -2.495464 -51.376863 0.910889 1.417684 51.668836 0.302110 -0.186141 0.184489 0.309826 -1.081054 -0.153868 0.000000 0.000000 0.000000 -1.256959 0.890647 -0.680169 2.960687 -0.810162 -1.114088 -19.214435 -6.225924 -0.439601 17.998470 10.460556 -0.537438 0.000000 0.000000 0.000000 0.000000 0.000000 0.000000 -4.643019 13.179594 0.340154 -2.587918 -9.544631 -1.121484 -11.979986 -1.476562 -1.517588 -21.207660 -11.458812 9.911650 0.000000 0.000000 0.000000 0.000000 0.000000 0.000000 -1.981646 -9.118922 55.268991 22.562756 13.255494 -12.907513 -4.595260 8.386107 -2.718728 0.000000 0.000000 0.000000 -0.033290 1.607510 51.937681 -0.521400 -13.511819 0.862026 0.012955 5.321609 -18.708097 0.000000 0.000000 0.000000
-46.395201 73.141092 344.981844 2.910027 -3.049228 -51.165894 1.063426 1.783442 51.526222 0.330304 -0.217323 0.227180 0.565522 -1.831795 -0.062984 0.000000 0.000000 0.000000 -1.037127 1.048470 -1.000447 2.833720 -1.243909 -1.167406 -21.414425 -6.552111 -0.289945 19.113166 11.459309 -0.605819 0.000000 0.000000 0.000000 0.000000 0.000000 0.000000 -5.697908 15.883880 0.460199 -3.025055 -12.835551 -1.777409 -14.106664 -1.776110 -2.144923 -27.907019 -15.003796 10.092676 0.000000 0.000000 0.000000 0.000000 0.000000 0.000000 -2.436382 -11.639673 56.210304 29.834383 15.804442 -17.733787 -6.117214 9.945865 -3.870248 0.000000 0.000000 0.000000 -0.030074 1.723075 51.822529 -1.119662 -13.528667 0.841114 -1.139212 4.731745 -20.436259 0.000000 0.000000 0.000000
-46.577168 73.210491 344.919821 3.467436 -3.466413 -50.706236 1.151987 2.093551 51.121075 0.316459 -0.229935 0.260148 0.862498 -2.747298 0.103700 0.000000 0.000000 0.000000 -0.497379 1.130391 -1.372964 2.113263 -1.742754 -1.046264 -21.773811 -6.133518 0.011400 17.966191 11.378074 -0.304550 0.000000 0.000000 0.000000 0.000000 0.000000 0.000000 -6.504117 17.716568 0.556007 -3.223920 -16.203043 -2.495465 -15.361054 -1.984561 -2.734678 -30.577213 -16.247713 9.069905 0.000000 0.000000 0.000000 0.000000 0.000000 0.000000 -2.879965 -13.871938 56.793925 36.522368 17.451371 -22.321927 -7.438185 10.975751 -5.059375 0.000000 0.000000 0.000000 -0.018998 1.624804 51.416903 -1.831007 -11.831998 0.672095 -2.723277 3.459719 -20.159272 0.000000 0.000000 0.000000
-47.040593 73.254913 344.756538 3.914882 -3.756500 -49.979394 1.148830 2.377250 50.428842 -0.014556 -0.115971 0.254064 1.631652 -4.564742 0.624243 0.000000 0.000000 0.000000 0.992520 1.025138 -1.860864 -0.256403 -2.532610 -0.530917 -17.588398 -4.645873 0.111943 11.795940 10.617644 1.012010 0.000000 0.000000 0.000000 0.000000 0.000000 0.000000 -6.808892 19.672141 0.721540 -2.205550 -24.140135 -3.765639 -15.315863 -1.617515 -3.449250 -22.840145 -10.210207 7.949422 0.000000 0.000000 0.000000 0.000000 0.000000 0.000000 -3.158084 -16.456358 57.304289 45.053388 18.618878 -27.756100 -9.184012 11.766453 -7.112975 0.000000 0.000000 0.000000 3.850276 -0.590874 50.412287 -4.049855 -2.621403 0.736794 -4.974276 -1.601269 -20.614503 0.000000 0.000000 0.000000
-47.438851 73.310867 344.657024 4.293278 -4.075295 -48.980302 0.885738 2.439322 49.457558 -0.292042 -0.054728 0.240649 2.939784 -5.082975 0.582073 0.000000 0.000000 0.000000 2.574940 0.680244 -2.164213 -2.867959 -2.890966 -0.070131 -12.236528 -3.432401 -0.251787 3.042869 9.070745 2.786482 0.000000 0.000000 0.000000 0.000000 0.000000 0.000000 -6.732568 20.233017 0.788394 -1.005040 -30.943375 -4.693201 -14.679715 -0.850727 -3.953546 -21.441526 -6.129131 8.624242 0.000000 0.000000 0.000000 0.000000 0.000000 0.000000 -4.130702 -18.063379 57.263783 51.637329 18.458566 -31.854714 -10.056911 12.256803 -9.143575 0.000000 0.000000 0.000000 3.041976 -0.650130 49.448416 -4.806839 1.979097 0.360801 -6.599354 -4.107668 -15.705104 0.000000 0.000000 0.000000
-47.772784 73.352864 344.649120 4.677057 -4.005461 -47.876676 0.852428 2.582136 48.365977 -0.153900 -0.076517 0.267215 2.926352 -6.273930 0.915828 0.000000 0.000000 0.000000 3.617884 0.493137 -2.622162 -5.062693 -3.691658 0.435934 -8.910375 0.093666 0.463221 -3.833850 4.303975 2.770141 0.000000 0.000000 0.000000 0.000000 0.000000 0.000000 -7.127084 19.783239 0.775967 -0.952790 -35.178298 -5.644066 -14.231652 1.680211 -3.036863 -21.922337 -5.429002 6.976431 0.000000 0.000000 0.000000 0.000000 0.000000 0.000000 -4.639349 -19.511045 56.762585 55.216216 18.354580 -34.621528 -10.383390 12.280057 -9.893252 0.000000 0.000000 0.000000 -1.774751 1.043121 48.629586 -4.237988 2.036909 -0.565583 -10.058629 -4.261888 -5.227443 0.000000 0.000000 0.000000
-48.003563 73.485704 344.663132 5.038296 -3.825830 -46.558894 0.815315 2.896079 47.039379 -0.138462 -0.056059 0.284913 2.652345 -7.580326 1.288482 0.000000 0.000000 0.000000 4.527342 0.059164 -2.989021 -6.382059 -3.807410 0.817538 -7.282785 2.381616 1.025644 -7.346417 1.284607 2.118024 0.000000 0.000000 0.000000 0.000000 0.000000 0.000000 -7.448868 17.906722 0.672175 -2.147109 -34.027729 -6.179330 -12.659603 1.743497 -3.250694 -17.256603 -2.432141 5.401607 0.000000 0.000000 0.000000 0.000000 0.000000 0.000000 -5.202004 -20.173614 55.565501 55.259393 18.416633 -35.411069 -9.505888 11.897077 -10.141677 0.000000 0.000000 0.000000 -9.049759 4.080936 48.001989 -1.460016 -0.650892 -1.597655 -14.786806 3.057505 23.292458 0.000000 0.000000 0.000000
-48.112683 73.666214 344.813040 5.371582 -3.362089 -45.398782 0.894335 3.109543 45.859186 -0.133446 -0.062664 0.303664 1.805777 -9.053441 1.815189 0.000000 0.000000 0.000000 5.251597 -0.032071 -3.441712 -7.558576 -3.881791 1.302589 -5.748237 5.214175 1.812422 -9.067309 -2.936661 0.372983 0.000000 0.000000 0.000000 0.000000 0.000000 0.000000 -7.618070 14.958868 0.536283 -3.277118 -27.156657 -5.423188 -10.233965 0.259102 -3.560992 -12.343970 -2.168144 -0.301347 0.000000 0.000000 0.000000 0.000000 0.000000 0.000000 -5.668419 -19.989670 54.007252 50.806147 18.582383 -33.550133 -6.206519 12.129669 -10.583410 0.000000 0.000000 0.000000 -19.109941 8.564463 48.433514 2.252249 -7.408767 -2.264005 -20.521002 3.960062 38.434712 0.000000 0.000000 0.000000
-48.176969 73.799379 345.047952 5.758647 -2.816206 -44.511096 0.907390 3.188600 44.951521 -0.194798 -0.071777 0.314548 1.205575 -11.030209 2.552974 0.000000 0.000000 0.000000 5.898245 -0.378263 -3.714019 -7.900110 -2.680500 1.589484 -7.514828 2.769294 1.622210 -7.733247 -0.761267 1.046799 0.000000 0.000000 0.000000 0.000000 0.000000 0.000000 -7.642792 10.772164 0.341026 -2.997634 -18.210173 -3.704874 -8.486402 -2.496162 -4.169346 -13.349427 -5.440629 -7.503827 0.000000 0.000000 0.000000 0.000000 0.000000 0.000000 -6.321101 -21.117489 53.460751 56.102776 17.786081 -35.100982 -11.631296 13.348604 -8.273939 0.000000 0.000000 0.000000 -30.114924 13.217900 50.073162 7.346545 -17.391847 -1.487983 -26.985568 2.915973 45.341329 0.000000 0.000000 0.000000
-48.265941 73.817781 345.271826 6.029054 -2.118136 -43.850869 0.867704 3.138195 44.255392 -0.287380 -0.089399 0.313849 0.034118 -13.096566 3.407479 0.000000 0.000000 0.000000 6.313522 -0.506482 -3.934017 -7.715042 -1.924919 1.810470 -8.914102 2.411187 2.002355 -4.685334 -0.181755 0.605783 0.000000 0.000000 0.000000 0.000000 0.000000 0.000000 -7.488306 9.288057 0.364079 -2.654361 -15.201676 -3.070369 -3.602626 -1.286601 -2.775871 -18.344380 -9.714826 -15.481579 0.000000 0.000000 0.000000 0.000000 0.000000 0.000000 -6.332670 -22.492901 53.082097 61.467888 17.217660 -36.995001 -16.631480 16.690341 -6.150058 0.000000 0.000000 0.000000 -39.609769 16.879958 52.207220 12.332088 -27.385976 0.557214 -32.179756 1.600189 47.150273 0.000000 0.000000 0.000000
-48.291805 73.722313 345.232867 6.290712 -0.981628 -42.923720 0.952891 2.800524 43.277242 -0.421997 -0.250600 0.319840 -1.718897 -15.326159 4.345938 0.000000 0.000000 0.000000 5.866367 -0.721096 -3.849355 -6.410068 -0.650642 1.737713 -9.320196 4.866278 3.250617 -2.527515 -3.784242 -1.246825 0.000000 0.000000 0.000000 0.000000 0.000000 0.000000 -7.481810 9.153189 0.382397 0.629232 -13.192517 -1.667936 -3.514061 -3.085558 -2.964534 -16.027294 -9.711910 -18.233201 0.000000 0.000000 0.000000 0.000000 0.000000 0.000000 -6.239633 -24.443579 52.516029 71.888240 15.582351 -40.370564 -27.802220 21.986741 -1.729011 0.000000 0.000000 0.000000 -46.373923 19.302598 53.458985 17.449646 -37.461701 3.811932 -37.215858 -0.440820 40.506084 0.000000 0.000000 0.000000
